<svg width="138" height="22" viewBox="0 0 138 22" fill="none" xmlns="http://www.w3.org/2000/svg">
<path d="M12.088 14.792C12.0667 16.7333 11.4373 18.3013 10.2 19.496C9.00533 20.6693 7.49067 21.256 5.656 21.256C4.696 21.256 3.98133 21.16 3.512 20.968C3.42667 20.9253 3.29867 20.8507 3.128 20.744C2.97867 20.6373 2.78667 20.4987 2.552 20.328L1.336 21H0.12C0.162667 19.912 0.194667 18.536 0.216 16.872C0.237333 15.1867 0.248 13.192 0.248 10.888C0.248 10.7387 0.248 10.3973 0.248 9.864C0.248 9.30933 0.258667 8.552 0.28 7.592C0.301333 6.22667 0.301333 5.11733 0.28 4.264C0.258667 3.64533 0.226667 3.06933 0.184 2.536C0.162667 2.00267 0.12 1.49067 0.056 1H3.32C3.27733 1.512 3.24533 2.10933 3.224 2.792C3.20267 3.47467 3.192 4.264 3.192 5.16C3.17067 6.184 3.16 7.048 3.16 7.752C3.16 8.43467 3.14933 8.95733 3.128 9.32C3.832 8.744 4.78133 8.44533 5.976 8.424C7.98133 8.33867 9.528 8.904 10.616 10.12C11.64 11.2293 12.1307 12.7867 12.088 14.792ZM9.144 14.792C9.16533 13.768 8.856 12.9253 8.216 12.264C7.59733 11.6027 6.79733 11.272 5.816 11.272C4.728 11.272 3.85333 11.656 3.192 12.424C3.192 13.1067 3.192 13.8533 3.192 14.664C3.192 15.4533 3.18133 16.296 3.16 17.192C3.84267 17.9387 4.728 18.312 5.816 18.312C6.776 18.312 7.56533 18.0027 8.184 17.384C8.80267 16.744 9.12267 15.88 9.144 14.792ZM27.0853 20.072C24.9093 21.0107 23.5546 21.416 23.0213 21.288C22.7013 21.224 22.5199 20.6587 22.4773 19.592C21.1759 20.7227 19.7466 21.288 18.1893 21.288C16.6959 21.288 15.6293 20.8293 14.9893 19.912C14.2639 18.9093 13.9013 17.1493 13.9013 14.632C13.9013 13.9493 13.9013 13.2987 13.9013 12.68C13.9013 12.0613 13.9119 11.4747 13.9333 10.92C13.9333 10.4507 13.9333 10.024 13.9333 9.64C13.9333 9.256 13.9546 8.904 13.9973 8.584H17.0693C17.0053 11.336 16.9733 12.9147 16.9733 13.32C16.9946 14.2587 17.0159 15.0053 17.0373 15.56C17.0586 16.1147 17.0906 16.4773 17.1333 16.648C17.4106 17.8213 18.1146 18.344 19.2453 18.216C20.3333 18.088 21.1546 17.7573 21.7093 17.224C21.8159 17.096 21.9226 16.968 22.0293 16.84C22.1359 16.712 22.2426 16.5733 22.3493 16.424C22.3919 13.9707 22.4133 12.0933 22.4133 10.792C22.4133 9.49067 22.4026 8.75467 22.3813 8.584H25.4853C25.4426 9.69333 25.4106 11.0373 25.3893 12.616C25.3679 14.1733 25.3573 15.976 25.3573 18.024C25.3999 18.0667 25.4319 18.088 25.4533 18.088C25.5173 18.088 25.6026 18.0667 25.7093 18.024C25.8159 17.96 25.9226 17.896 26.0293 17.832C26.1359 17.768 26.2319 17.704 26.3173 17.64C26.4239 17.576 26.4986 17.544 26.5413 17.544C26.6053 17.6293 26.7866 18.472 27.0853 20.072ZM37.804 21.032C37.804 21.0747 36.268 21.0747 33.196 21.032C31.6387 21.032 30.412 21.032 29.516 21.032C28.6413 21.032 28.0867 21.0213 27.852 21C27.8093 21.0427 27.8093 20.5093 27.852 19.4L33.164 11.336C32.14 11.336 30.604 11.4 28.556 11.528L28.588 8.584H37.708L37.676 9.992C37.1853 10.696 36.4813 11.7307 35.564 13.096C34.668 14.4613 33.548 16.168 32.204 18.216C33.5053 18.216 34.6253 18.2053 35.564 18.184C36.5027 18.1413 37.2493 18.0987 37.804 18.056V21.032ZM48.4915 21.032C48.4915 21.0747 46.9555 21.0747 43.8835 21.032C42.3262 21.032 41.0995 21.032 40.2035 21.032C39.3288 21.032 38.7742 21.0213 38.5395 21C38.4968 21.0427 38.4968 20.5093 38.5395 19.4L43.8515 11.336C42.8275 11.336 41.2915 11.4 39.2435 11.528L39.2755 8.584H48.3955L48.3635 9.992C47.8728 10.696 47.1688 11.7307 46.2515 13.096C45.3555 14.4613 44.2355 16.168 42.8915 18.216C44.1928 18.216 45.3128 18.2053 46.2515 18.184C47.1902 18.1413 47.9368 18.0987 48.4915 18.056V21.032ZM58.251 21.384C57.8457 21.3627 57.3763 21.2987 56.843 21.192C56.331 21.0853 55.7443 20.9467 55.083 20.776C54.7203 20.6693 54.347 20.5733 53.963 20.488C53.6003 20.3813 53.227 20.2747 52.843 20.168C52.1177 19.976 51.659 19.9013 51.467 19.944V14.792H53.675C53.7603 15.3467 54.0483 15.8267 54.539 16.232C55.6483 17.1493 57.1097 17.608 58.923 17.608C60.3097 17.608 61.1523 17.0427 61.451 15.912C61.4937 15.7413 61.515 15.6027 61.515 15.496C61.515 14.9413 61.2057 14.3867 60.587 13.832C60.139 13.4267 59.627 13.1067 59.051 12.872C57.7283 12.36 56.6617 11.9333 55.851 11.592C55.0617 11.2293 54.5177 10.9627 54.219 10.792C52.7043 9.81067 51.9363 8.49867 51.915 6.856C51.8723 4.76533 52.587 3.18667 54.059 2.12C55.275 1.20267 56.9283 0.722666 59.019 0.679998C59.2537 0.658665 59.5097 0.669333 59.787 0.712C60.0643 0.754666 60.3843 0.818666 60.747 0.903999C61.0457 0.989333 61.3337 1.064 61.611 1.128C61.8883 1.192 62.1657 1.256 62.443 1.32C63.531 1.55467 64.2137 1.64 64.491 1.576V6.44H62.347C62.2403 5.82133 62.059 5.40533 61.803 5.192C61.5683 4.97867 61.3443 4.776 61.131 4.584C60.747 4.328 60.1923 4.17867 59.467 4.136C57.675 4.05067 56.5337 4.47733 56.043 5.416C55.8937 5.71467 55.819 6.024 55.819 6.344C55.819 7.56 56.875 8.43467 58.987 8.968C60.971 9.43733 62.5603 10.2267 63.755 11.336C65.1203 12.5093 65.803 13.9173 65.803 15.56C65.803 17.5227 65.003 19.0267 63.403 20.072C61.9737 21.032 60.2563 21.4693 58.251 21.384ZM75.8385 8.552V11.208H73.6945C73.6518 11.4427 73.6198 12.4027 73.5985 14.088C73.5772 15.1973 73.5558 15.9333 73.5345 16.296C73.5345 16.6373 73.5345 16.6267 73.5345 16.264C73.5345 17.4373 73.6625 18.024 73.9185 18.024C74.0465 18.024 74.2278 17.9387 74.4625 17.768C74.7185 17.576 74.8785 17.4693 74.9425 17.448C75.0065 17.5333 75.1878 18.408 75.4865 20.072C73.9718 20.968 72.5745 21.3733 71.2945 21.288C70.8038 21.2453 70.5585 20.3173 70.5585 18.504C70.5585 18.3547 70.5905 17.3307 70.6545 15.432C70.6758 15.0907 70.6865 14.5787 70.6865 13.896C70.6865 13.2133 70.6972 12.328 70.7185 11.24H68.8945C68.9158 11.2187 68.9265 10.7707 68.9265 9.896V8.584H70.7505C70.7718 8.02933 70.7825 7.47467 70.7825 6.92C70.7825 6.36533 70.7825 5.81067 70.7825 5.256L73.7265 4.424V8.584C75.1132 8.584 75.8172 8.57333 75.8385 8.552ZM91.179 20.072C89.003 21.0107 87.6483 21.416 87.115 21.288C86.795 21.224 86.6137 20.6587 86.571 19.592C85.2697 20.7227 83.8403 21.288 82.283 21.288C80.7897 21.288 79.723 20.8293 79.083 19.912C78.3577 18.9093 77.995 17.1493 77.995 14.632C77.995 13.9493 77.995 13.2987 77.995 12.68C77.995 12.0613 78.0057 11.4747 78.027 10.92C78.027 10.4507 78.027 10.024 78.027 9.64C78.027 9.256 78.0483 8.904 78.091 8.584H81.163C81.099 11.336 81.067 12.9147 81.067 13.32C81.0883 14.2587 81.1097 15.0053 81.131 15.56C81.1523 16.1147 81.1843 16.4773 81.227 16.648C81.5043 17.8213 82.2083 18.344 83.339 18.216C84.427 18.088 85.2483 17.7573 85.803 17.224C85.9097 17.096 86.0163 16.968 86.123 16.84C86.2297 16.712 86.3363 16.5733 86.443 16.424C86.4857 13.9707 86.507 12.0933 86.507 10.792C86.507 9.49067 86.4963 8.75467 86.475 8.584H89.579C89.5363 9.69333 89.5043 11.0373 89.483 12.616C89.4617 14.1733 89.451 15.976 89.451 18.024C89.4937 18.0667 89.5257 18.088 89.547 18.088C89.611 18.088 89.6963 18.0667 89.803 18.024C89.9097 17.96 90.0163 17.896 90.123 17.832C90.2297 17.768 90.3257 17.704 90.411 17.64C90.5177 17.576 90.5923 17.544 90.635 17.544C90.699 17.6293 90.8803 18.472 91.179 20.072ZM104.842 1C104.714 2.13067 104.65 4.66933 104.65 8.616V9.864C104.65 12.4453 104.66 14.664 104.682 16.52C104.703 18.3547 104.735 19.848 104.778 21H102.634L102.25 20.072C101.588 20.7973 100.554 21.1813 99.1458 21.224C97.2044 21.288 95.6258 20.744 94.4098 19.592C93.2151 18.3973 92.6178 16.8187 92.6178 14.856C92.6178 13.896 92.7671 13.0213 93.0658 12.232C93.3644 11.4427 93.7804 10.7707 94.3138 10.216C94.8684 9.64 95.5298 9.20267 96.2977 8.904C97.0871 8.584 97.9618 8.424 98.9218 8.424C100.095 8.424 101.044 8.72267 101.77 9.32L101.738 8.584C101.738 7.90133 101.727 7.05867 101.706 6.056C101.706 5.05333 101.695 3.86933 101.674 2.504C101.652 2.26933 101.631 2.03467 101.61 1.8C101.61 1.544 101.599 1.27733 101.578 1H104.842ZM101.738 17.192C101.738 16.5947 101.738 15.9013 101.738 15.112C101.738 14.3227 101.727 13.4267 101.706 12.424C101.023 11.656 100.148 11.272 99.0818 11.272C98.0578 11.272 97.2258 11.6027 96.5858 12.264C95.9671 12.9253 95.6471 13.7787 95.6258 14.824C95.6044 15.976 95.9458 16.872 96.6498 17.512C97.2898 18.088 98.1111 18.376 99.1138 18.376C100.159 18.376 101.034 17.9813 101.738 17.192ZM111.138 4.68C111.138 5.10667 110.956 5.49067 110.594 5.832C110.252 6.17333 109.847 6.344 109.378 6.344C108.908 6.36533 108.503 6.20533 108.162 5.864C107.842 5.52267 107.682 5.128 107.682 4.68C107.682 4.21067 107.852 3.80533 108.194 3.464C108.535 3.10133 108.93 2.92 109.378 2.92C109.847 2.92 110.252 3.10133 110.594 3.464C110.956 3.80533 111.138 4.21067 111.138 4.68ZM110.978 21.128H107.906C108.098 16.6267 108.098 12.4667 107.906 8.648H110.978C110.807 12.8507 110.807 17.0107 110.978 21.128ZM125.852 14.824C125.852 16.7653 125.233 18.3227 123.996 19.496C122.737 20.6907 121.212 21.288 119.42 21.288C117.457 21.288 115.857 20.648 114.62 19.368C113.425 18.152 112.849 16.616 112.892 14.76C112.913 12.9467 113.521 11.4427 114.716 10.248C115.932 9.032 117.5 8.424 119.42 8.424C121.361 8.424 122.918 9.01067 124.092 10.184C125.265 11.3573 125.852 12.904 125.852 14.824ZM122.716 14.664C122.716 13.64 122.406 12.7973 121.788 12.136C121.169 11.4747 120.369 11.144 119.388 11.144C118.364 11.144 117.521 11.4747 116.86 12.136C116.22 12.7973 115.9 13.64 115.9 14.664C115.878 15.6027 116.209 16.4347 116.891 17.16C117.574 17.8427 118.406 18.184 119.388 18.184C120.348 18.184 121.137 17.8747 121.756 17.256C122.374 16.616 122.694 15.752 122.716 14.664ZM134.983 20.904C134.023 21.3307 132.967 21.4907 131.815 21.384C129.81 21.192 128.348 20.968 127.431 20.712L127.399 17.544L129.895 18.312C130.855 18.5893 131.708 18.728 132.455 18.728C133.351 18.728 133.831 18.4613 133.895 17.928C134.002 17.1173 133.362 16.4027 131.975 15.784C131.591 15.6347 131.122 15.4427 130.567 15.208C130.034 14.9733 129.404 14.6853 128.679 14.344C127.826 13.7467 127.399 12.9253 127.399 11.88C127.399 10.7067 127.804 9.84267 128.615 9.288C129.255 8.86133 129.98 8.59467 130.791 8.488C130.94 8.46667 131.196 8.456 131.559 8.456C131.922 8.43467 132.391 8.424 132.967 8.424C133.287 8.424 133.81 8.49867 134.535 8.648C135.388 8.84 135.826 8.936 135.847 8.936V11.816C135.634 11.7307 135.42 11.656 135.207 11.592C135.015 11.528 134.812 11.464 134.599 11.4C133.788 11.1227 133.042 10.984 132.359 10.984C131.292 10.9413 130.759 11.208 130.759 11.784C130.802 12.168 131.058 12.4667 131.527 12.68C131.826 12.7867 132.124 12.8933 132.423 13C132.722 13.1067 133.02 13.2133 133.319 13.32C135.922 14.344 137.223 15.784 137.223 17.64C137.223 19.1547 136.476 20.2427 134.983 20.904Z" fill="#FFFEFE"/>
</svg>
